# xmcd CD database file
#
# Track frame offsets:
#	150
#	26522
#	60140
#	83945
#	101105
#	133375
#	154130
#	185732
#	204612
#	236470
#	273400
#
# Disc length: 3874 seconds
#
# Revision: 3
# Processed by: cddbd v1.5.2PL0 Copyright (c) Steve Scherf et al.
# Submitted via: CDex 1.70beta2
#
DISCID=980f200b
DTITLE=Myron Walden - Like A Flower Seeking The Sun
DYEAR=1999
DGENRE=Contemporary Jazz
TTITLE0=Like A Flower Seeking The Sun
TTITLE1=As Night Falls
TTITLE2=From This Moment On
TTITLE3=Tears Of The Fallen One
TTITLE4=E Minor Untitled
TTITLE5=Like A Flower Seeking The Sun
TTITLE6=Momentum
TTITLE7=A Long Road Ahead
TTITLE8=Path Of The Sun
TTITLE9=Pulse
TTITLE10=Like A Flower Seeking The Sun
EXTD=YEAR: 1999
EXTT0=
EXTT1=
EXTT2=
EXTT3=
EXTT4=
EXTT5=
EXTT6=
EXTT7=
EXTT8=
EXTT9=
EXTT10=
PLAYORDER=
